<svg version="1.1" id="Layer_1" xmlns="http://www.w3.org/2000/svg" xmlns:xlink="http://www.w3.org/1999/xlink" x="0px" y="0px"
	 width="100%" viewBox="0 0 1024 1024" enable-background="new 0 0 1024 1024" xml:space="preserve">
<path fill="#FFFFFF" opacity="1.000000" stroke="none" 
	d="
M533.229126,191.109497 
	C534.686462,202.084000 535.958801,212.647141 537.556580,223.160828 
	C538.561035,229.770096 542.322205,234.493774 548.779602,236.631073 
	C562.720703,241.245377 576.197388,246.927719 589.374390,253.407715 
	C595.417358,256.379425 601.356506,255.355331 606.745422,251.265411 
	C615.637634,244.516632 624.544006,237.786591 633.457703,231.066223 
	C642.868774,223.970795 651.342285,224.561310 659.742065,232.950821 
	C677.073730,250.261276 694.394531,267.582703 711.686890,284.932373 
	C719.854919,293.127441 720.402039,301.434387 713.390869,310.799774 
	C707.301086,318.934357 701.276001,327.125946 694.922729,335.052277 
	C688.960999,342.490173 687.787048,349.792938 692.607788,358.506927 
	C698.506104,369.168915 697.940063,366.645630 690.051086,374.653595 
	C678.006104,386.880249 665.810486,398.958771 653.645752,411.067017 
	C650.914062,413.786041 648.341980,416.592773 646.628235,420.095825 
	C646.269653,420.828766 645.875610,421.763611 645.232239,422.105225 
	C635.116760,427.476471 628.665955,436.924500 620.372314,444.313477 
	C619.910156,444.725250 619.271606,444.939087 618.103333,445.581482 
	C607.934753,395.720673 580.960754,358.979736 534.696411,337.606537 
	C505.766998,324.241669 475.364166,321.505127 444.430695,328.684540 
	C382.708893,343.009705 336.391510,395.467743 333.502747,463.097595 
	C330.699860,528.716187 377.210815,596.614563 453.374115,609.536499 
	C453.898804,611.825378 451.936066,612.736755 450.744995,613.931763 
	C427.100128,637.654663 403.374023,661.296875 379.785126,685.075134 
	C377.137878,687.743652 374.882812,688.564392 371.582031,686.482605 
	C369.198608,684.979492 366.586273,683.809753 363.999268,682.664734 
	C357.689117,679.871887 351.715942,680.398010 346.136475,684.641907 
	C337.386688,691.297180 328.610596,697.918030 319.827332,704.529175 
	C309.954376,711.960449 301.850769,711.463135 293.146637,702.801270 
	C275.783600,685.522644 258.448212,668.216187 241.131226,650.891418 
	C233.110535,642.867065 232.545639,634.146179 239.458588,624.943298 
	C245.862869,616.417664 252.237518,607.864990 258.851501,599.503235 
	C264.192719,592.750610 265.059906,586.065247 260.851105,578.264343 
	C254.596695,566.671875 249.717041,554.425537 245.729980,541.863525 
	C243.378448,534.454590 238.796509,530.022095 230.906021,529.003723 
	C219.689224,527.556030 208.510056,525.819153 197.300873,524.309448 
	C186.948807,522.915161 180.806335,516.280212 180.769943,505.808929 
	C180.681900,480.480011 180.678833,455.150452 180.754547,429.821503 
	C180.785217,419.561005 186.876587,412.999817 196.986267,411.643860 
	C208.523270,410.096558 220.038544,408.387543 231.564133,406.754822 
	C238.526840,405.768463 243.098007,401.893341 245.269577,395.251648 
	C249.676178,381.774200 254.870468,368.622375 261.455872,356.052063 
	C264.941223,349.399170 264.200531,343.304077 259.664948,337.416962 
	C253.055710,328.838257 246.594650,320.145569 240.018021,311.541534 
	C232.450241,301.640808 232.897659,293.244629 241.643265,284.484955 
	C258.714691,267.386108 275.802795,250.303848 292.918549,233.249359 
	C301.780426,224.419174 309.798798,223.888260 319.948059,231.456512 
	C328.630005,237.930634 337.296631,244.427872 345.865234,251.050522 
	C351.777954,255.620453 357.984192,256.207947 364.561310,252.916641 
	C377.244110,246.569946 390.272003,241.084366 403.776642,236.729858 
	C411.113892,234.364014 414.650360,228.953491 415.675293,221.564224 
	C417.296539,209.875977 418.821045,198.171143 420.679596,186.520081 
	C421.967316,178.447556 427.242584,173.561523 435.384552,172.476044 
	C438.339874,172.082016 441.363678,172.107956 444.356476,172.103943 
	C466.352844,172.074432 488.349274,172.087891 510.345703,172.083847 
	C525.501648,172.081055 530.185303,175.891602 533.229126,191.109497 
z"/>
<path fill="#FFFFFF" opacity="1.000000" stroke="none" 
	d="
M645.901001,572.900879 
	C575.539978,643.265991 505.446381,713.398682 435.292175,783.470581 
	C427.397278,791.356262 416.988586,795.554199 407.621582,801.225830 
	C380.118073,817.878845 352.376923,834.138916 324.767181,850.617126 
	C320.242859,853.317322 315.659180,854.850586 310.595093,852.487366 
	C303.324524,849.094360 301.224426,841.182983 305.774445,833.401489 
	C314.604218,818.300598 323.641296,803.320923 332.584137,788.286133 
	C344.508301,768.239014 356.441986,748.197571 368.320465,728.123352 
	C369.699036,725.793579 371.412933,723.799561 373.302399,721.910095 
	C464.855713,630.354675 556.406677,538.796875 647.960022,447.241425 
	C652.896118,442.305206 652.909424,442.308258 657.999878,447.398254 
	C675.439941,464.836609 692.770020,482.387299 710.398682,499.632843 
	C714.143921,503.296661 713.719543,505.303345 710.221619,508.751404 
	C688.741089,529.925781 667.482910,551.325745 645.901001,572.900879 
z"/>
<path fill="#FFFFFF" opacity="1.000000" stroke="none" 
	d="
M767.631531,327.628601 
	C780.925842,313.563568 796.528870,308.241425 815.006592,313.915771 
	C845.408569,323.251953 855.371399,362.200836 833.385803,385.346222 
	C828.337097,390.661163 823.124512,395.827820 817.828491,400.896790 
	C815.578491,403.050476 815.184814,404.850922 816.546204,407.847534 
	C829.548950,436.468903 824.178284,465.617981 802.046265,487.751221 
	C752.553040,537.247314 703.051880,586.735474 653.588440,636.261353 
	C649.000854,640.854736 643.861511,643.193787 637.376221,641.229919 
	C631.539734,639.462524 628.190552,635.374023 627.104797,629.482300 
	C626.027649,623.637207 628.744812,619.254089 632.724609,615.279358 
	C668.453674,579.595276 704.139160,543.867615 739.837830,508.153076 
	C753.740356,494.244354 767.614929,480.307434 781.557312,466.438751 
	C790.749451,457.295105 794.966919,446.378174 793.745544,433.418182 
	C793.560547,431.454987 793.617310,429.425323 791.963440,427.910309 
	C789.874695,428.195343 788.946106,429.943451 787.701111,431.184235 
	C769.168579,449.653931 750.584106,468.073273 732.242432,486.731140 
	C728.735535,490.298492 726.681702,490.467010 723.082947,486.795227 
	C705.586975,468.944000 687.889099,451.287476 670.056824,433.771637 
	C666.611206,430.387115 666.645691,428.370148 670.057495,424.985016 
	C702.589417,392.707703 734.964050,360.271973 767.631531,327.628601 
z"/>
</svg>
