<svg xmlns="http://www.w3.org/2000/svg" version="1.1" xmlns:xlink="http://www.w3.org/1999/xlink" xmlns:svgjs="http://svgjs.dev/svgjs" width="2000" height="555" viewBox="0 0 2000 555"><g transform="matrix(1,0,0,1,-1.2121212121212466,-0.4806413964652734)"><svg viewBox="0 0 396 110" data-background-color="#f9f9f9" preserveAspectRatio="xMidYMid meet" height="555" width="2000" xmlns="http://www.w3.org/2000/svg" xmlns:xlink="http://www.w3.org/1999/xlink"><g id="tight-bounds" transform="matrix(1,0,0,1,0.2400000000000091,0.09526225875887917)"><svg viewBox="0 0 395.52 109.80947548248226" height="109.80947548248226" width="395.52"><g><svg viewBox="0 0 650.2122310852028 180.52048960295477" height="109.80947548248226" width="395.52"><g><rect width="11.779684551041774" height="131.27575401662048" x="212.07567598169567" y="24.622367793167143" fill="#030303" opacity="1" stroke-width="0" stroke="transparent" fill-opacity="1" class="rect-yte-0" data-fill-palette-color="primary" rx="1%" id="yte-0" data-palette-color="#030303"></rect></g><g transform="matrix(1,0,0,1,254.69223108520282,24.94892439519853)"><svg viewBox="0 0 395.52 130.6226408125577" height="130.6226408125577" width="395.52"><g id="textblocktransform"><svg viewBox="0 0 395.52 130.6226408125577" height="130.6226408125577" width="395.52" id="textblock"><g><svg viewBox="0 0 395.52 130.6226408125577" height="130.6226408125577" width="395.52"><g transform="matrix(1,0,0,1,0,0)"><svg width="395.52" viewBox="1.3499999999999999 -40.5 162.44 53.65" height="130.6226408125577" data-palette-color="#030303"><g class="wordmark-text-0" data-fill-palette-color="primary" id="text-0"><path d="M22.3-8.7L22.3-17.85Q22.3-21.7 21.28-23.25 20.25-24.8 17.85-24.8L17.85-24.8Q14.15-24.8 10.4-19.25L10.4-19.25 10.4-2.55 14.45-1.8Q14.65-1 14.45 0.2L14.45 0.2Q11.3 0.05 8 0.05L8 0.05Q5.7 0.05 1.5 0.15L1.5 0.15Q1.2-0.8 1.5-1.8L1.5-1.8 5.45-2.35Q5.65-5.1 5.65-8.7L5.65-8.7 5.65-22.4Q5.65-23.4 5.5-24.25L5.5-24.25 1.55-24.75Q1.35-25.5 1.55-26.65L1.55-26.65Q5-26.9 10.15-27.7L10.15-27.7Q10.6-27.2 10.65-26.7L10.65-26.7Q10.4-25.4 10.4-22.25L10.4-22.25Q14.35-27.7 19.3-27.7L19.3-27.7Q27.05-27.7 27.05-20.35L27.05-20.35 27.05-2.55 31.1-1.8Q31.3-1 31.1 0.2L31.1 0.2Q27.95 0.05 24.65 0.05L24.65 0.05Q22.35 0.05 18.15 0.15L18.15 0.15Q17.85-0.8 18.15-1.8L18.15-1.8 22.1-2.35Q22.3-5.1 22.3-8.7L22.3-8.7ZM37.85 0.55L37.85 0.55Q38.3 0.75 38.6 1.4L38.6 1.4Q36.95 2.75 36.95 5.45L36.95 5.45Q36.95 7.85 39.15 9.3 41.35 10.75 44.85 10.75L44.85 10.75Q48.45 10.75 50.85 9.43 53.25 8.1 53.25 5.7L53.25 5.7Q53.25 3.1 52.3 1.88 51.35 0.65 48.5 0.4L48.5 0.4 39.15-0.45Q37.6-0.65 36.57-2.08 35.55-3.5 35.55-4.85L35.55-4.85 38.9-10.4Q36.6-11.7 35.42-13.85 34.25-16 34.25-18.25L34.25-18.25Q34.25-22.5 37.4-25.1 40.55-27.7 44.65-27.7L44.65-27.7Q48.6-27.7 51.6-25.6L51.6-25.6Q51.85-32.45 56.7-32.7L56.7-32.7Q58-32.4 58-30.55L58-30.55Q58-29.55 57.8-28.35L57.8-28.35Q55.85-28.2 54.6-27.08 53.35-25.95 52.8-24.5L52.8-24.5Q55.3-22 55.3-18.25L55.3-18.25Q55.3-14.3 52.1-11.68 48.9-9.05 44.65-9.05L44.65-9.05Q42.4-9.05 40.6-9.65L40.6-9.65 38.9-5.2 51.35-3.95Q54.25-3.6 55.77-1.83 57.3-0.05 57.3 2.8L57.3 2.8Q57.3 7.8 53.7 10.48 50.1 13.15 43.95 13.15L43.95 13.15Q38.85 13.15 36 11.3 33.15 9.45 33.15 6.35L33.15 6.35Q33.15 4.25 34.5 2.63 35.85 1 37.85 0.55ZM38.75-18.25L38.75-18.25Q38.75-15.35 40.37-13.3 42-11.25 44.7-11.25L44.7-11.25Q47.35-11.25 49.05-13.28 50.75-15.3 50.75-18.25L50.75-18.25Q50.75-21.45 49.07-23.58 47.4-25.7 44.7-25.7L44.7-25.7Q42.15-25.7 40.45-23.55 38.75-21.4 38.75-18.25ZM83.84-26.7L83.84-26.7 83.84-7.1Q83.84-3.75 84-2.4L84-2.4 87.95-1.9Q88.09-1.1 87.95 0L87.95 0Q84.3 0.15 80.34 0.7L80.34 0.7Q80 0.35 79.84-0.25L79.84-0.25 79.59-4.7Q77.5-2 75.27-0.5 73.05 1 70.05 1L70.05 1Q67 1 64.92-0.55 62.84-2.1 62.84-5.85L62.84-5.85 62.84-16.95Q62.84-22.65 62.7-24.25L62.7-24.25 58.75-24.75Q58.55-25.5 58.75-26.65L58.75-26.65Q62.2-26.9 67.34-27.7L67.34-27.7Q67.8-27.2 67.84-26.7L67.84-26.7Q67.59-25.4 67.59-8.35L67.59-8.35Q67.59-4.85 68.42-3.38 69.25-1.9 71.5-1.9L71.5-1.9Q75.7-1.9 79.09-6.9L79.09-6.9 79.09-17Q79.09-22.65 78.95-24.25L78.95-24.25 75-24.75Q74.8-25.5 75-26.65L75-26.65Q78-26.85 83.34-27.7L83.34-27.7Q83.8-27.2 83.84-26.7ZM113.49-24.3L103.14 2.2 102.09 2.2 91.74-24.25 88.59-24.85Q88.39-25.65 88.59-26.85L88.59-26.85Q91.34-26.65 94.54-26.65L94.54-26.65Q97.39-26.65 100.59-26.8L100.59-26.8Q100.89-25.8 100.59-24.85L100.59-24.85 97.44-24.25 101.49-12.75Q103.24-7.75 103.79-5.5L103.79-5.5 103.89-5.5Q105.09-9.8 106.24-12.5L106.24-12.5 110.54-24.45 106.64-24.85Q106.44-25.65 106.64-26.85L106.64-26.85Q109.39-26.65 111.89-26.65L111.89-26.65Q113.99-26.65 117.24-26.8L117.24-26.8Q117.54-25.8 117.24-24.85L117.24-24.85 113.49-24.3ZM127.49-18.6L127.49-18.6 127.49-2.55 131.54-1.8Q131.59-1.55 131.62-1.35 131.64-1.15 131.64-0.9L131.64-0.9Q131.64-0.65 131.62-0.38 131.59-0.1 131.54 0.2L131.54 0.2Q128.39 0.05 125.09 0.05L125.09 0.05Q123.94 0.05 122.31 0.08 120.69 0.1 118.59 0.15L118.59 0.15Q118.44-0.3 118.44-0.8L118.44-0.8Q118.44-1.25 118.59-1.8L118.59-1.8 122.54-2.35Q122.64-3.75 122.69-5.33 122.74-6.9 122.74-8.7L122.74-8.7 122.74-19.35Q122.74-22.65 122.59-24.25L122.59-24.25 118.64-24.75Q118.54-25 118.54-25.6L118.54-25.6Q118.54-25.85 118.54-26.1 118.54-26.35 118.64-26.65L118.64-26.65Q122.04-26.85 127.24-27.7L127.24-27.7Q127.69-27.2 127.74-26.7L127.74-26.7Q127.49-25.3 127.49-18.6ZM120.19-36.45L120.19-36.45Q120.09-36.7 120.09-36.98 120.09-37.25 120.09-37.5L120.09-37.5Q120.09-38.85 121.22-39.68 122.34-40.5 123.99-40.5L123.99-40.5Q125.54-40.5 126.52-39.58 127.49-38.65 127.49-37.05L127.49-37.05Q127.49-35.75 126.37-34.95 125.24-34.15 123.49-34.15L123.49-34.15Q122.29-34.15 121.37-34.75 120.44-35.35 120.19-36.45ZM154.89-8.7L154.89-17.85Q154.89-21.7 153.86-23.25 152.84-24.8 150.44-24.8L150.44-24.8Q146.74-24.8 142.99-19.25L142.99-19.25 142.99-2.55 147.04-1.8Q147.24-1 147.04 0.2L147.04 0.2Q143.89 0.05 140.59 0.05L140.59 0.05Q138.29 0.05 134.09 0.15L134.09 0.15Q133.79-0.8 134.09-1.8L134.09-1.8 138.04-2.35Q138.24-5.1 138.24-8.7L138.24-8.7 138.24-22.4Q138.24-23.4 138.09-24.25L138.09-24.25 134.14-24.75Q133.94-25.5 134.14-26.65L134.14-26.65Q137.59-26.9 142.74-27.7L142.74-27.7Q143.19-27.2 143.24-26.7L143.24-26.7Q142.99-25.4 142.99-22.25L142.99-22.25Q146.94-27.7 151.89-27.7L151.89-27.7Q159.64-27.7 159.64-20.35L159.64-20.35 159.64-2.55 163.69-1.8Q163.89-1 163.69 0.2L163.69 0.2Q160.54 0.05 157.24 0.05L157.24 0.05Q154.94 0.05 150.74 0.15L150.74 0.15Q150.44-0.8 150.74-1.8L150.74-1.8 154.69-2.35Q154.89-5.1 154.89-8.7L154.89-8.7Z" fill="#030303" data-fill-palette-color="primary"></path></g></svg></g></svg></g></svg></g></svg></g><g><svg viewBox="0 0 181.2388054292303 180.52048960295477" height="180.52048960295477" width="181.2388054292303"><g><svg xmlns="http://www.w3.org/2000/svg" xmlns:xlink="http://www.w3.org/1999/xlink" version="1.1" x="0" y="0" viewBox="1.6263877704752223 1.7225317671673097 48.74754233033853 48.55433794971492" style="enable-background:new 0 0 52 52;" xml:space="preserve" height="180.52048960295477" width="181.2388054292303" class="icon-icon-0" data-fill-palette-color="accent" id="icon-0"><g fill="#030303" data-fill-palette-color="accent"><g fill="#030303" data-fill-palette-color="accent"><path d="M19.352 14.541C21.272 15.396 21.998 18.28 20.905 20.082 20.035 21.517 17.275 22.13 15.795 21.321 14.043 20.363 13.999 17.597 14.048 15.91 14.142 12.72 16.57 13.156 18.823 14.216 20.27 14.896 21.54 12.742 20.084 12.057 17.356 10.775 12.778 9.765 11.744 13.767 10.989 16.692 11.473 21.8 14.431 23.438 17.101 24.918 21.16 24.078 22.895 21.572 24.87 18.72 23.864 13.83 20.613 12.383 19.156 11.734 17.883 13.888 19.352 14.54" fill="#030303" data-fill-palette-color="accent"></path></g><g fill="#030303" data-fill-palette-color="accent"><path d="M19.812 4.002C21.797 4.886 22.592 5.184 23.366 7.192 23.703 8.068 23.12 8.346 23.94 9.268 24.852 10.295 26.176 9.914 27.407 10.02 30.233 9.587 31.264 11.08 30.5 14.496A4.5 4.5 0 0 0 29.213 15.246C29.019 15.743 28.335 16.033 28.107 16.581 27.261 18.618 29.238 19.35 29.41 20.995 29.935 26.013 27.172 22.858 25.333 24.413 22.845 26.517 26.245 29.098 19.203 29.452 18.7 29.477 17.68 29.114 16.954 29.145 16.47 29.505 16.023 29.908 15.612 30.353L11.569 29.795C11.191 29.427 11.566 26.861 11.36 26.04A1.25 1.25 0 0 0 10.486 25.167C9.176 24.801 7.63 25.322 6.42 24.906 4.295 25.224 3.907 24.2 5.26 21.833L7.322 19.89C7.762 19.473 7.737 18.88 7.517 18.374 6.721 16.54 4.473 14.088 6.246 12.868 6.846 12.454 8.166 12.788 8.933 12.23 9.773 11.621 10.148 10.753 10.393 9.781 10.556 9.124 10.25 8.25 10.475 7.668 10.246 6.648 10.87 6.112 12.353 6.06 13.885 4.472 15.195 4.736 16.283 6.85 16.885 7.468 17.793 7.237 18.247 6.596L19.882 4.69C21.028 3.555 19.26 1.787 18.114 2.92 17.044 3.98 16.958 4.104 16.088 5.335 16.742 5.25 17.397 5.165 18.05 5.082 15.705 2.669 11.177 0.183 8.675 3.938 7.387 5.871 8.588 7.69 6.807 9.3 5.377 10.593 3.104 10.03 2.032 11.862 1.345 13.037 1.61 14.352 2.237 15.522 2.633 16.265 3.818 16.923 4.094 17.623 4.914 19.701 3.416 19.648 2.362 21.163 0.742 23.491 2.168 26.826 4.927 27.402 6.347 27.698 8.182 26.775 9.074 28.432 9.543 29.305 8.78 30.82 9.17 31.805 9.695 33.134 10.785 33.502 12.213 33.792 14.513 34.257 15.087 33.373 16.843 32.639 18.806 31.819 19.68 33.193 21.856 33.094A5.38 5.38 0 0 0 25.925 30.918C26.48 30.16 26.792 29.313 26.938 28.39 27.308 26.042 26.686 26.685 29.061 26.454 33.411 26.03 33.143 23.488 32.106 20.336 31.69 19.065 31.794 17.265 32.236 16.32 32.37 16.03 32.925 15.99 33.058 15.664 33.415 14.794 33.795 14.455 33.883 13.494 34.055 11.623 32.763 9.343 31.235 8.283 30.435 7.729 29.977 7.74 28.982 7.507 28.527 7.4 27.825 7.695 27.407 7.52 25.861 6.866 26.441 6.49 25.868 5.432 24.722 3.32 23.353 2.858 21.074 1.843 19.617 1.194 18.344 3.348 19.812 4.002" fill="#030303" data-fill-palette-color="accent"></path></g><g fill="#030303" data-fill-palette-color="accent"><path d="M40.209 37.413C40.85 37.444 40.722 39.695 40.443 40.02 39.987 40.555 38.407 40.833 37.801 40.52 36.972 40.09 36.824 38.813 37.205 38.052 37.624 37.215 38.594 36.844 39.48 37.03 41.051 37.356 41.722 34.947 40.146 34.62 37.862 34.142 35.479 35.25 34.729 37.548 34.019 39.724 35.129 42.468 37.469 43.038 39.463 43.527 42.513 42.5 43.02 40.323 43.53 38.137 42.876 35.044 40.21 34.912 38.6 34.834 38.605 37.335 40.209 37.413" fill="#030303" data-fill-palette-color="accent"></path></g><g fill="#030303" data-fill-palette-color="accent"><path d="M37 29.63C39.976 29.56 38.78 31.748 40.835 32.35 42.362 32.796 44.155 30.879 44.732 33.19 45.049 34.459 44.028 35.379 44.749 36.68 45.489 38.015 47.319 38.538 48.681 38.728L47.763 37.523C47.849 38.486 47.885 39.45 47.87 40.417L48.789 39.21C47.293 39.467 44.812 39.991 44.355 41.721 44.153 42.483 44.987 43.676 44.77 44.226 44.207 45.66 43.18 44.516 41.962 44.558 40.251 44.618 40.641 45.204 39.818 46.326 38.022 48.77 36.864 45.62 34.873 44.898 33.73 44.484 32.887 45.467 32.124 43.625 31.77 42.771 32.079 42.016 31.55 41.061 31.173 40.381 29.594 39.72 29.71 38.758 29.836 37.74 31.55 37.576 32.137 36.876 32.578 36.35 32.633 36.168 32.75 35.532 32.847 35.007 32.545 34.48 32.44 33.982L32.027 32.202 32.48 32.548C32.98 32.392 33.926 32.906 34.56 32.731 35.866 32.37 36.839 30.87 37.783 30.038 38.993 28.974 37.22 27.211 36.016 28.271 35.288 28.91 34.26 29.868 33.289 30.043 32.995 30.096 32.669 29.591 32.335 29.657 31.731 29.775 31.215 29.794 30.68 30.18 28.726 31.593 30.238 33.131 29.773 34.78 29.305 36.44 27.27 35.669 27.181 38.274 27.087 41.034 28.85 41.565 29.489 44.227 29.873 45.832 29.724 47.137 31.742 47.73 32.215 47.867 34.292 47.368 34.285 47.364 34.368 47.402 34.88 48.961 35.403 49.414 36.543 50.4 39.383 50.504 40.668 49.914 41.336 49.607 41.337 49.394 41.818 48.954 42.66 48.181 41.518 47.902 42.848 47.631 43.295 47.54 43.803 47.82 44.207 47.985 44.641 48.161 45.098 47.923 45.424 47.664 46.236 47.016 47.144 45.729 47.295 44.67 47.567 42.764 46.43 42.14 49.453 41.621 49.982 41.532 50.377 40.926 50.371 40.418A28 28 0 0 0 50.263 37.523C50.232 37.032 49.9 36.395 49.345 36.318 45.854 35.83 48.597 30.454 44.558 29.33 44.262 29.248 43.843 29.286 43.595 29.204L42.43 29.55C41.589 29.219 40.952 28.673 40.517 27.912 39.354 27.234 38.483 27.095 37 27.13 35.394 27.169 35.388 29.669 37 29.63" fill="#030303" data-fill-palette-color="accent"></path></g></g></svg></g></svg></g></svg></g><defs></defs></svg><rect width="395.52" height="109.80947548248226" fill="none" stroke="none" visibility="hidden"></rect></g></svg></g></svg>